<?xml version="1.0" encoding="UTF-8"?>
<svg id="Capa_1" xmlns="http://www.w3.org/2000/svg" version="1.1" viewBox="0 0 750 310">
  <!-- Generator: Adobe Illustrator 29.8.1, SVG Export Plug-In . SVG Version: 2.1.1 Build 2)  -->
  <defs>
    <style>
      .st0 {
        fill: #010101;
      }

      .st1 {
        fill: #b98011;
      }
    </style>
  </defs>
  <circle class="st0" cx="153.6" cy="155" r="150.2"/>
  <g>
    <path class="st1" d="M262.6,164.3c-7.7,0-15.3,0-23,0-5.7,0-11.4,0-17.1-.3-4.8-.4-8.6,1.1-11.4,4.9-1.6,2.1-3.5,2.6-6,2.6-10.5-.1-21,0-31.4,0-.8,0-1.6-.5-2.5-.8.4-.8.6-1.9,1.2-2.5,2.9-3.1,6-5.9,8.8-9,2.3-2.5,2.4-5.4,0-8-2.9-3.2-6-6.1-9-9.2-.6-.6-.7-1.6-1.1-2.3.8-.3,1.6-.9,2.4-.9,10.9,0,21.9,0,32.8,0,1.2,0,2.6.6,3.4,1.4,7.3,7.1,5,6,14.6,6.1,20.5,0,41,.1,61.5.2,5.4,0,7.9-3.1,6.8-8.5-1.5-7.1-2.6-14.4-4.6-21.4-5.3-17.9-14.3-33.8-26.6-47.9-9.6-11.1-20.7-20.3-33.4-27.6-14.4-8.3-29.7-14.1-46.2-16.3-6.2-.8-12.4-1.2-18.6-1.6-1.9-.1-2.7-.8-2.6-2.7,0-4.3,0-8.6,0-12.9,0-2,.8-2.7,2.7-2.6,8.1.8,16.1,1.2,24.1,2.3,12.8,1.8,25,5.8,36.7,11.2,17.7,8.1,33.3,19.3,46.7,33.5,14.9,15.7,25.8,33.7,33,54.1,3.5,10.1,5.9,20.5,7,31.1.1,1.4.3,2.8.5,4.2.4,2.8,2.8,5.1,5.8,5.2,4.2.1,8.4,0,12.7,0,1.8,0,2.2-1,2.2-2.6,0-.9.6-1.9,1-2.8.9.4,2,.7,2.7,1.4,3.7,3.5,7.2,7.1,10.8,10.7,2.1,2.1,2,2.5,0,4.5-3.8,3.7-7.5,7.4-11.4,11.1-.5.5-1.6,1-2.1.8-.5-.2-.9-1.3-1-2-.2-3.3-.1-3.3-3.6-3.3-3.4,0-6.9,0-10.3,0-4.3,0-6.4,1.9-6.9,6.2-3,26.5-12.1,50.6-27.7,72.2-13.1,18.1-29.5,32.6-49,43.5-15.4,8.6-31.9,14.5-49.5,16.9-7.5,1-15,1.3-22.6,1.9-2,.2-2.8-.7-2.8-2.7,0-4.3,0-8.6,0-12.9,0-1.7.7-2.5,2.5-2.6,3,0,6.1-.1,9.1-.3,4.1-.3,6.2-2.7,6.2-6.7,0-11.3,0-22.7,0-34,0-1.6.5-2.8,1.6-3.9,14.1-13.9,28.2-27.9,42.3-41.9,5-5,10-10.1,15.1-15,.6-.6,1.7-.8,2.6-1.2.3.9.8,1.8.8,2.6,0,6.3,0,12.5,0,18.8,0,1.1-.6,2.4-1.3,3.2-13.5,13.5-27.1,27-40.7,40.5-1.7,1.7-2.3,3.6-2.3,5.9,0,6.3,0,12.7,0,19,0,5.2,3.7,7.9,8.6,6.2,22.1-7.8,41-20.2,56.6-37.8,14.2-16.1,23.9-34.5,29.2-55.3,1.3-5.2,2.1-10.5,3-15.8.6-3.8-2.2-6.8-6.2-6.8-8.1,0-16.1,0-24.2,0,0,0,0,0,0,0Z"/>
    <path class="st1" d="M114,156.4c-10.9,0-21.9,0-32.8,0-4.8,0-7.3,3.3-6.2,8.1,1.6,7.5,4.3,14.5,8.9,20.6,9.3,12.5,21.7,20,37.3,21.5,3.2.3,6.4.2,9.6,0,1.4,0,2.1.5,2.1,1.8,0,5.2.1,10.3,0,15.5,0,.7-1.3,1.9-2,1.9-18.4,1.1-34.9-4-49.3-15.7-13.7-11-22-25.3-25.4-42.4-.7-3.3-.9-6.8-1-10.2-.2-5.7,0-11.4,0-17.1,0-1.4,0-2.4,1.9-2.4,15.7.1,31.4.2,47.1.2,11.9,0,23.8,0,35.6,0,2.9,0,5.8.2,8.7.2,1.4,0,1.8.7,1.8,1.9,0,4.5,0,9.1,0,13.6,0,1.8-.7,2.4-2.5,2.4-11.2,0-22.4,0-33.5,0,0,0,0,0,0,0Z"/>
    <path class="st1" d="M215.9,118.4c-5.3,0-10.6,0-16,0-2.8,0-3-.2-2.8-2.9.9-13.5-3.7-24.4-14.6-32.6-11.8-8.9-29.7-8.8-41.5,0-7.4,5.6-12.1,12.8-14,21.7-.7,3.4-.5,7.1-.4,10.7,0,1.9-.4,2.8-2.3,2.8-4.5,0-9.1,0-13.6,0-1.6,0-2.2-.9-2.3-2.3-2.1-28.5,17.8-51.7,42.6-56.6,27-5.4,53.4,10.3,61.5,35.6.8,2.6,1.4,5.2,2,7.9.6,2.8,1.8,4.8,4.6,6,4.7,2,9.2,4.2,13.8,6.4.7.4,1.2,1.4,1.7,2.1-.8.4-1.6,1.2-2.4,1.2-5.5.1-10.9,0-16.4,0h0Z"/>
  </g>
  <g>
    <path class="st1" d="M369.3,70.2c.4-.1,1.2-.3,2.3-.5,2.3-.4,3.9-.9,4.6-1.6.5-.4.7-1.2.9-2.5,0-.3.1-4.1.3-11.5v-4.2s0-5,0-5v-12.9c-.1,0-.1-1.5-.1-1.5,0-.7-.2-1.2-.5-1.5-.2-.2-.7-.3-1.5-.3s-1.4,0-2.3.2c-1.1,0-2.1.2-3,.3-.2,0-.4,0-.7.1v-3.3c1.5-.5,3.6-.9,6.4-1.4,4.6-.8,10.2-1.1,17-1.1s9.7.3,12.3.9c3.9,1,7.1,2.4,9.6,4.4,3.3,2.6,5.8,5.6,7.4,9,1.7,3.4,2.5,7.1,2.5,11.2s-1.1,9.5-3.3,13.1c-2.2,3.6-5.4,6.6-9.6,8.8-2.9,1.6-6.9,2.3-11.9,2.3l-7.8-.3h-2.3c0-.1-3.1,0-3.1,0h-.9c0,0-3.2,0-3.2,0h-4.2c-.2,0-1.4,0-3.9.2-.8,0-1.9,0-3.2.1-.8,0-1.4,0-1.8,0,0-.6,0-1.6,0-3.1ZM387.7,28.1c0,.8,0,1.3,0,1.7v6.4c0,0,0,5.6,0,5.6,0,1.8,0,3.4,0,4.8v3.6c0,0,0,6,0,6v3.7c-.1,3.5.5,5.8,1.8,7,1.9,1.8,4.4,2.6,7.7,2.6s4.3-.2,5.5-.7c2.5-1,4.4-2.2,5.9-3.8s2.6-3.8,3.3-6.7,1.1-5.9,1.1-9c0-5.1-.8-9.2-2.4-12.5s-3.9-5.6-6.7-7.3c-2.8-1.6-6.1-2.4-9.7-2.4s-4.8.3-6.7,1Z"/>
    <path class="st1" d="M429.5,24.3c1.4,0,2.7.2,3.7.3,2,.3,4.3.4,6.9.4s3.2,0,7-.2c5.6-.2,10.7-.3,15.2-.3h6.8c1.5,0,3.8.1,6.8.5.5.5.7,1.2.7,2v9.3c0,.2,0,.4,0,.7h-1.6c-.2,0-.6,0-1.3,0-.2-.5-.5-1.2-.9-2.2l-1.5-2.7c-.6-1.1-1.4-2.3-2.4-3.5-.6-.2-1.4-.3-2.4-.3-.3,0-1,0-2.3-.2-2.3-.2-4.9-.3-7.6-.3s-5.8,0-8.2.2c0,.6-.1,3.1-.1,7.5v6.4s0,4.8,0,4.8c.6,0,1.2.1,1.6.1,4.5,0,7.7,0,9.7-.3,1.9-.2,3.1-.4,3.6-.7.5-.3.9-.9,1.2-1.6.2-.6.7-2.4,1.3-5.6h.5s2.2,0,2.2,0c.1,2.2.2,3.9.2,5.1,0,2.6,0,4.4,0,5.1,0,.8,0,1.3,0,1.8,0,.7,0,1.8.1,3.3,0,1.5.1,2.6.1,3.3v.8h-2.7c-.1-.4-.3-1.2-.6-2.5-.5-2.3-1-3.8-1.4-4.4-.3-.5-.8-.8-1.5-1-.5-.2-2.4-.3-5.6-.3s-6.7.1-8.6.3v1.3c0,3,0,5.5.2,7.5v8.2c0,1,.3,1.6.9,2,1,.5,4.2.8,9.5.8s6.5-.3,8.9-.8c1.7-.4,3.2-1.2,4.5-2.5,1.7-1.7,3.1-4.1,4.3-7.1.8,0,1.4-.1,1.9-.1s.7,0,1.2,0c0,.6-.1,1.2-.2,1.6l-.2,1.1-1.4,7.2-.7,4.3c-1.6,0-2.9.1-3.9.1-1.4,0-5.2-.1-11.3-.4-4.3-.2-9.5-.3-15.6-.3s-6.8.1-11.2.4h-1.6l-4.6.2v-2.6c.5-.1,1.4-.3,2.9-.4,2.6-.3,4.4-.7,5.4-1.2.3-.7.4-1.7.4-2.8s0-1.2,0-2.2v-1.2s0-14.3,0-14.3v-4.3s-.2-6.1-.2-6.1v-4.3s-.3-4.7-.3-4.7c0-.1,0-.4,0-.8-.3-.3-.6-.5-1.1-.5-.3,0-.7-.1-1.1-.2-1.4-.3-2.8-.5-4.2-.5-.5,0-1,0-1.7-.2l.2-3Z"/>
    <path class="st1" d="M485.1,73.5v-2.8c.6-.1,1.6-.3,2.8-.6,1.3-.3,2.6-.5,3.9-.9l.7-.5c.3-1,.4-2,.4-3.1v-.2l-.2-8.7v-3.7s-.1-5.4-.1-5.4v-6.4c0,0-.4-12.7-.4-12.7-.4-.4-1.6-.7-3.7-1.1-.5-.1-1.2-.3-2.2-.6l-.9-.2v-2.6l5,.2c3,.3,7.5.5,13.3.5s6,0,9.2-.2h.7s1.9,0,1.9,0h.8s1.6,0,1.6,0l6.8-.2c.3,0,.7,0,1.2,0,.5,0,1,0,1.4-.1.2.8.3,1.5.3,2.3l.6,7.1c0,.8,0,1.3-.2,1.7-.9.1-1.6.2-2,.2s-.9-.1-1.2-.3c-.2-.2-.4-.7-.9-1.7-1.1-2.5-2-4.1-2.7-4.5-.7-.5-2.8-.7-6.2-.7l-5.2.2c-2.2,0-4,.2-5.2.4-.3,0-.7.2-1.2.4-.3.6-.5,1.3-.5,2.2v4.5c.1,0,0,5.2,0,5.2,0,2.6,0,4.2.3,4.9.2.2.4.2.6.3h2.7s4.5,0,4.5,0c1,0,2.6-.1,4.6-.4,1.4-.2,2.3-.4,2.6-.6.6-.4,1-.9,1.3-1.5.3-.6.5-2.1.6-4.5.1,0,.5,0,1,0,.4,0,.6,0,.7,0,.3,0,.8,0,1.7.1l-.2,6.1c0,1.3,0,2.4-.1,3.3v.8c.1.3.1,2.1.1,5.6s0,.6,0,1.1c-.5.1-.9.2-1.1.2s-.7,0-1.5-.2c-.2-.5-.5-1.2-.8-2.1-.6-2-1.2-3.2-1.9-3.5-1.2-.6-5-.9-11.4-.9s-2,0-3.2.3c-.2,1.1-.3,2.3-.3,3.7l.2,11.4c0,2.1.3,3.4.7,3.9.3.3,1.2.6,2.8.9h.8c1.1.2,2.1.3,3,.6l1,.2c.1.7.2,1.2.2,1.5s0,.9-.1,1.5h-.7s-1.2,0-1.2,0l-5.4-.3c-.6,0-3.4,0-8.5,0s-2.7,0-4,.2c-2,.2-3.1.3-3.3.3-1.6,0-2.8,0-3.4,0Z"/>
    <path class="st1" d="M532,24.3c1.4,0,2.7.2,3.7.3,2,.3,4.3.4,6.9.4s3.2,0,7-.2c5.6-.2,10.7-.3,15.2-.3h6.8c1.5,0,3.8.1,6.8.5.5.5.7,1.2.7,2v9.3c0,.2,0,.4,0,.7h-1.6c-.2,0-.6,0-1.3,0-.2-.5-.5-1.2-.9-2.2l-1.5-2.7c-.6-1.1-1.4-2.3-2.4-3.5-.6-.2-1.4-.3-2.4-.3-.3,0-1,0-2.3-.2-2.3-.2-4.9-.3-7.6-.3s-5.8,0-8.2.2c0,.6-.1,3.1-.1,7.5v6.4s0,4.8,0,4.8c.6,0,1.2.1,1.6.1,4.5,0,7.7,0,9.7-.3,1.9-.2,3.1-.4,3.6-.7.5-.3.9-.9,1.2-1.6.2-.6.7-2.4,1.3-5.6h.5s2.2,0,2.2,0c.1,2.2.2,3.9.2,5.1,0,2.6,0,4.4,0,5.1,0,.8,0,1.3,0,1.8,0,.7,0,1.8.1,3.3,0,1.5.1,2.6.1,3.3v.8h-2.7c-.1-.4-.3-1.2-.6-2.5-.5-2.3-1-3.8-1.4-4.4-.3-.5-.8-.8-1.5-1-.5-.2-2.4-.3-5.6-.3s-6.7.1-8.6.3v1.3c0,3,0,5.5.2,7.5v8.2c0,1,.3,1.6.9,2,1,.5,4.2.8,9.5.8s6.5-.3,8.9-.8c1.7-.4,3.2-1.2,4.5-2.5,1.7-1.7,3.1-4.1,4.3-7.1.8,0,1.4-.1,1.9-.1s.7,0,1.2,0c0,.6-.1,1.2-.2,1.6l-.2,1.1-1.4,7.2-.7,4.3c-1.6,0-2.9.1-3.9.1-1.4,0-5.2-.1-11.3-.4-4.3-.2-9.5-.3-15.6-.3s-6.8.1-11.2.4h-1.6l-4.6.2v-2.6c.5-.1,1.4-.3,2.9-.4,2.6-.3,4.4-.7,5.4-1.2.3-.7.4-1.7.4-2.8s0-1.2,0-2.2v-1.2s0-14.3,0-14.3v-4.3s-.2-6.1-.2-6.1v-4.3s-.3-4.7-.3-4.7c0-.1,0-.4,0-.8-.3-.3-.6-.5-1.1-.5-.3,0-.7-.1-1.1-.2-1.4-.3-2.8-.5-4.2-.5-.5,0-1,0-1.7-.2l.2-3Z"/>
    <path class="st1" d="M585.8,27.3l-.2-2.6h4.3c1.5-.1,2.6-.2,3.1-.2s1.2,0,2.6,0c.3,0,.6,0,.8,0s1,0,2.4,0c1.4,0,2.1,0,2.3,0,.3,0,.7,0,1.2,0,3.9,3.5,7,6.6,9.5,9.1,2.4,2.5,11.4,11.5,26.8,26.7v-.9l-.2-4.4c0-2.6-.2-4.6-.3-6.1-.1-1.5-.2-3.3-.2-5.4,0-2.1-.1-4-.3-5.7-.3-3.3-.5-5.2-.5-5.7,0-1.6-.2-2.6-.5-3-.5-.6-1.7-1-3.6-1.2-1.4-.2-2.4-.5-3.1-.9v-2.2s1-.1,1-.1l7.5-.2,8.3-.2c.6,0,1.1,0,1.6,0v2.5c-.5.3-1.1.5-1.7.7-1.6.4-2.5.6-2.8.8-1.3.7-2,1.2-2.1,1.3-.2.3-.3.8-.3,1.4s0,.7,0,1.6c0,.5,0,1.5,0,3.2,0,3.7.1,6.5.3,8.7,0,.7,0,1.5.1,2.3l.4,13.3c0,.9,0,1.6,0,2v6.6c.1,0,0,2,0,2,.1,1,.2,1.7.2,1.9v2l-4.4.2-4.5-4.7-9.2-9.1-6.4-6.4-4.7-4.8c-3.1-3-5.9-5.7-8.4-8l-6.2-5.6.3,14.1c0,.9,0,1.7,0,2.6v2.7s.2,5,.2,5c0,2.1.2,4.3.4,6.7,0,.7.1,1.1.2,1.4,0,.3.2.6.5,1.2,1,.4,3.1.6,6.4.8.2,0,.6.1,1,.3l.2,3.1h-1.5c-.8,0-3.4-.2-7.6-.5-4,0-6.7.1-8,.2-1.3.1-2.1.2-2.2.2-.3,0-.7,0-1.2-.2,0-.6,0-1.1,0-1.5s0-.7,0-1.4c.7-.1,1.3-.2,1.7-.2s.6,0,1.5,0c2.1,0,3.4-.2,3.8-.5.4-.3.6-1.2.7-2.6.2-4,.3-6.5.3-7.3v-14.4c0,0,0-7.7,0-7.7,0-2.9-.2-5-.6-6.1-.2-.6-.4-1.1-.9-1.5-.9-.9-1.9-1.6-3-2-.7-.3-2.4-.6-5.1-1.1Z"/>
    <path class="st1" d="M682.7,25.4c.3.9.5,2.2.7,3.9.3,2.6.5,4.6.5,6.1s0,.9-.2,1.5h-.4c0,.1-2.7,0-2.7,0h-.5c-1.1-3.4-2.2-5.7-3.3-6.8-1.9-2-4.2-3-6.8-3s-4.4.7-5.9,2c-1.5,1.3-2.2,2.9-2.2,4.8s.7,3.2,2.2,4.7c1.4,1.5,4.4,2.9,9,4.3,1.5.5,3.4,1.2,5.6,2.2,2.2,1,3.8,2.1,5,3.3,1.5,1.6,2.6,3.1,3.1,4.5.6,1.5.9,3.3.9,5.4s-.4,4.7-1.3,7c-.5,1.2-1.2,2.4-2.3,3.4-.8.8-1.9,1.6-3.5,2.7s-3.2,1.8-4.9,2.2c-1.7.5-3.9.7-6.6.7s-3.9-.3-6.3-.8l-4.5-1.3c-1.3-.4-2.1-.7-2.4-.9-.1-.1-.2-.3-.3-.7v-.4c0-.3,0-2-.2-5.2,0-1.6,0-2.8,0-3.5v-1.4h3.5c1.2,2.7,2,4.4,2.3,5,.8,1.3,1.6,2.3,2.6,3.1.9.8,2.1,1.4,3.4,1.9,1.3.5,2.7.7,4.3.7s2.9-.3,4.5-.9c1.6-.6,3-1.5,3.9-2.9,1-1.3,1.5-2.7,1.5-4.3s-.9-3.6-2.6-5.2c-1.1-1-3.9-2.3-8.6-3.9s-7.9-3.1-9.6-4.4c-1.8-1.3-3.2-3-4.2-5.2s-1.6-4.2-1.6-6.2c0-4,1.4-7.4,4.3-10.2,2.9-2.8,7.1-4.2,12.7-4.2s3,.2,5.4.6c1.4.3,3.3.8,5.7,1.6Z"/>
    <path class="st1" d="M689.3,73.3v-2.6c.6-.2,1.4-.3,2.6-.6,1.9-.4,3.1-.7,3.5-1,.4-.3.9-1,1.5-2.2l7.6-20,9-23.5h4.1l.3.7,6.6,15.6c1.5,3.3,2.8,6.5,4,9.6,1.2,3.1,2.2,5.7,3.1,7.6.5,1.2,1.2,3,2.1,5.3.5,1.3,1.1,2.9,2.1,4.8.5,1.1.9,1.7,1.1,1.9.5.4,1.2.6,2.2.8,1,.1,2.1.4,3.3.9.1.8.2,1.5.2,1.9s0,.5,0,.8c-1.9,0-3.9,0-6.2-.3-2.2-.2-4.3-.3-6.1-.3s-3.4,0-4.3,0l-6.4.3h-1.9c0-.8,0-1.7.1-2.5l4.2-.9c1.3-.3,2-.6,2.2-.8.3-.3.4-.5.4-.9s0-.7-.2-1l-1.5-3.7-3-7.4h-14.4c-.5,1.2-1.6,4.1-3.3,8.9-.5,1.3-.7,2.2-.7,2.7s.2,1.1.5,1.4c.6.5,1.7.8,3.3,1,.2,0,1.1.2,2.7.4,0,.9,0,1.5,0,1.9s0,.6,0,.9c-1.6,0-5.3-.2-11.2-.6l-1.6.3c-1.9.3-3.6.5-5.3.5h-.7ZM707.1,52c5.9,0,9.4.1,10.4.1h.9c-.8-2.3-1.7-4.9-3-7.9-1.2-3-2.2-5.3-3-6.8l-5.5,14.6Z"/>
  </g>
  <g>
    <path class="st1" d="M381.6,166.9c1,1.8,1.9,2.9,2.7,3.4.4.2.8.3,1,.3.6,0,1.1-.3,1.5-.9.6-.9.9-2.3.9-4.2v-2.2c0-1.4,0-2.7.2-3.9,0-.7,0-1.3,0-1.8s0-1.1,0-2.6v-2.8s0-14.2,0-14.2c0-.8,0-1.4,0-1.8,0-1-.1-2-.1-2.9v-8.2s-.2-7-.2-7l-.2-2.5c0-1.9,0-3,0-3.5-.6-.1-2.3-.3-5.1-.6h-1.9c-.2-.1-.4-.2-.7-.2l-.2-3.3c2.5,0,4.6,0,6.4.2s4.1.2,7.1.2,5.3-.2,8.4-.5c.6,0,1.1-.1,1.5-.1s1.1,0,1.9.2c0,.6,0,1,0,1.3s0,.8-.1,1.5c-1.9.3-3.1.4-3.7.4-1.3,0-2.3.1-3,.3,0,.6,0,1,0,1.1,0,2.4,0,3.9,0,4.5,0,.5,0,2,0,4.4v3.1l.2,4.9v3.8c0,0,0,3.9,0,3.9v4s0,2.9,0,2.9c0,5.6-.2,9.9-.7,13-.5,3.1-1.2,5.6-2.3,7.6-1.5,2.8-2.8,4.8-4,5.9-2,1.8-3.9,3.1-5.8,3.8-1.9.7-3.8,1.1-5.6,1.1s-3.3-.6-4.6-1.9-1.9-2.7-1.9-4.3.5-2.4,1.4-3.3c.9-.9,2-1.3,3.3-1.3s2.4.7,3.7,2.2Z"/>
    <path class="st1" d="M408.2,111.2v-3c.3,0,.8,0,1.3,0,1.3,0,2.6,0,4,.1,3.3.2,5.3.3,5.9.3,2,0,4,0,5.9-.1,1.9,0,3.7-.1,5.2-.2s2.5,0,3.1,0v.4s0,2.2,0,2.2v.3c-1.4.2-2.9.3-4.4.3s-2.3.3-2.8.8c-.3.4-.5,1.9-.5,4.5s0,1.5,0,2v1.4s0,3.6,0,3.6l.2,3-.2,6.5.5,9.5c.1,2.7.7,5,1.8,6.8.8,1.3,1.9,2.4,3.4,3.1,2.1,1.1,4.2,1.6,6.2,1.6s4.7-.3,6.8-.9c1.2-.4,2.4-.9,3.5-1.7,1.1-.8,1.9-1.5,2.3-2.2.9-1.4,1.5-2.7,1.9-3.9.5-1.7.7-4.2.7-7.8,0-6.1-.3-13-1-20.6l-.2-2c0-1.5-.4-2.5-.8-3-.8-.8-1.7-1.2-2.7-1.2h-3.6c0,0-.5,0-.5,0v-2.9h3.1l7.2.3c2.4,0,4.7-.1,6.9-.3h.6c.2.9.2,1.5.2,1.8s0,.6-.2,1c-.9.3-1.9.4-3,.5-1.7.2-2.6.4-2.8.6-.4.3-.5.8-.5,1.4s0,1.1.1,2c0,.6.1,1.7.1,3.3s0,1.6,0,2.1c0,.5,0,1,0,1.6,0,1.8.1,3.7.2,5.5l.4,7.7c0,5.1-.2,8.6-.5,10.3-.4,1.7-.8,3.1-1.4,4.1-.9,1.5-2.3,2.9-4,4.2-1.7,1.3-3.9,2.3-6.4,3-2.6.7-5.6,1.1-9,1.1s-7.3-.5-10.1-1.6c-2.8-1-4.9-2.4-6.3-4.1s-2.4-3.9-2.9-6.6c-.4-1.9-.6-4.5-.6-8v-18c0-4.3-.2-6.7-.6-7.2-.6-.8-2.3-1.2-5.2-1.3-.6,0-1.2,0-1.6-.1Z"/>
    <path class="st1" d="M468.9,154.6c.7-.4,1.6-.6,2.9-.8s2.4-.4,3.5-.8c.1-.5.2-.9.2-1.1,0-.4,0-1.6,0-3.6v-8.4s.1-4.5.1-4.5v-3.5c0,0,0-2,0-2,0-2.7.1-5.3.1-7.7,0-5.2,0-8.6-.2-10.1l-2.2-.5c-2-.1-3.4-.3-4.1-.4v-2.3c0,0,0-.4,0-.4,1.3-.2,2.4-.3,3.5-.3s1.8,0,3.5,0c1.8.2,2.8.2,3,.2h2c0-.1,4.7-.3,4.7-.3,3-.3,6.1-.5,9.3-.5,5.2,0,9.3,1.3,12.3,4,3.1,2.6,4.6,5.7,4.6,9.1s-.8,4.9-2.5,6.9c-1.6,2.1-4.2,3.7-7.6,4.7.3.5.7,1.1,1.2,1.9,1.1,1.5,1.9,2.8,2.6,3.9l6,9.8c1.5,2.6,2.5,4.1,3,4.6.5.4,1.4.9,2.9,1.5,1.1.4,2,.9,2.6,1.3.2.4.2.8.2,1.1s0,.5,0,.9h-1.8s-2-.2-2-.2h-1.6c-.8-.1-1.8-.2-3-.2h-3.8c-.3,0-1.2,0-2.6.2-.7,0-1.2.1-1.6.2l-1.3-2.5c-1.1-1.9-1.8-3.3-2.2-4.2-1.1-2.4-3-6.3-5.7-11.7-1.3-2.5-2.1-3.9-2.6-4.2-.8-.5-2.1-.8-3.9-.8s-1.4,0-2.6,0c0,.7-.1,1.6-.1,2.6l.2,8.4-.2,7.1c.7.4,1.6.8,2.8,1,2,.4,3.7.9,5.1,1.4,0,1.2,0,2.2-.2,2.8-.5,0-.8,0-.9,0h-1.6c-5.4-.4-8.6-.6-9.6-.6s-1.1,0-1.4,0l-5.2.3c-1.6.2-3,.3-4.4.3h-1.6c0-.6,0-1,0-1.2,0-.3,0-.7.1-1.2ZM486,130.2c1.2,0,2.1,0,2.6,0,4.3,0,7.3-.8,9.1-2.3,1.8-1.5,2.7-3.6,2.7-6.2s-.2-3.1-.7-4.5c-.4-1.4-1-2.4-1.6-3.1-.9-1-2.2-1.7-3.7-2.2-1.1-.4-2.9-.6-5.3-.6s-2.2,0-3,.2v.7c0,0,0,5.1,0,5.1v3.1c-.1,0,0,4.1,0,4.1,0,1.2,0,2.7-.1,4.5v1.1Z"/>
    <path class="st1" d="M522.9,157v-2.7c.5-.2,1.3-.4,2.5-.6,1.6-.4,2.8-.8,3.6-1.2.5-.8.7-1.9.7-3.3v-4.5s0-8.6,0-8.6v-2c.2-5,.3-7.6.3-7.7v-5c0,0,0-2,0-2l-.2-4.3v-1.6c-.1-.3-.2-.7-.3-1.2-1-.5-2.7-.8-5-.9-.6,0-1,0-1.3-.1v-3.3c0,0,10.7.5,10.7.5,1.3,0,2.2,0,2.5,0,1.5,0,3.9-.1,7.1-.3,1.8-.1,3-.2,3.5-.2,0,.5,0,.9,0,1.2s0,1,0,1.7c-1,.4-2.2.7-3.5,1-1.3.3-2.4.6-3.2,1-.2.7-.2,1.6-.2,2.8s0,2,.1,2.6c0,4.3-.1,7.5-.1,9.8v10s-.2,5.1-.2,5.1l.2,7.6v1.4c-.1.2,0,.5.1.9,1.5.3,2.9.6,4.2.7.2,0,1,.1,2.3.3.1.8.2,1.4.2,1.9s0,.7,0,1.3c-.3,0-.6,0-.8,0-.8,0-1.3,0-1.4,0s-.5,0-1-.1c-.4,0-2-.2-5-.5h-6.7c-1.3,0-3.3,0-5.8.3-1.7.2-2.7.2-3.2.3ZM531.1,104.4c.8-2.8,2.1-6.8,3.9-12.1h10.4c0,0-11.4,12.2-11.4,12.2-.9,0-1.5,0-1.7,0-.4,0-.7,0-1.2-.1Z"/>
    <path class="st1" d="M552.4,153.8c.4-.1,1.2-.3,2.3-.5,2.3-.4,3.9-.9,4.6-1.6.5-.4.7-1.2.9-2.5,0-.3.1-4.1.3-11.5v-4.2s0-5,0-5v-12.9c-.1,0-.1-1.5-.1-1.5,0-.7-.2-1.2-.5-1.5-.2-.2-.7-.3-1.5-.3s-1.4,0-2.3.2c-1.1,0-2.1.2-3,.3-.2,0-.4,0-.7.1v-3.3c1.5-.5,3.6-.9,6.4-1.4,4.6-.8,10.2-1.1,17-1.1s9.7.3,12.3.9c3.9,1,7.1,2.4,9.6,4.4,3.3,2.6,5.8,5.6,7.4,9,1.7,3.4,2.5,7.1,2.5,11.2s-1.1,9.5-3.3,13.1c-2.2,3.6-5.4,6.6-9.6,8.8-2.9,1.6-6.9,2.3-11.9,2.3l-7.8-.3h-2.3c0-.1-3.1,0-3.1,0h-.9c0,0-3.2,0-3.2,0h-4.2c-.2,0-1.4,0-3.9.2-.8,0-1.9,0-3.2.1-.8,0-1.4,0-1.8,0,0-.6,0-1.6,0-3.1ZM570.7,111.7c0,.8,0,1.3,0,1.7v6.4c0,0,0,5.6,0,5.6,0,1.8,0,3.4,0,4.8v3.6c0,0,0,6,0,6v3.7c-.1,3.5.5,5.8,1.8,7,1.9,1.8,4.4,2.6,7.7,2.6s4.3-.2,5.5-.7c2.5-1,4.4-2.2,5.9-3.8s2.6-3.8,3.3-6.7,1.1-5.9,1.1-9c0-5.1-.8-9.2-2.4-12.5s-3.9-5.6-6.7-7.3c-2.8-1.6-6.1-2.4-9.7-2.4s-4.8.3-6.7,1Z"/>
    <path class="st1" d="M614.1,157v-2.7c.5-.2,1.3-.4,2.5-.6,1.6-.4,2.8-.8,3.6-1.2.5-.8.7-1.9.7-3.3v-4.5s0-8.6,0-8.6v-2c.2-5,.3-7.6.3-7.7v-5c0,0,0-2,0-2l-.2-4.3v-1.6c-.1-.3-.2-.7-.3-1.2-1-.5-2.7-.8-5-.9-.6,0-1,0-1.3-.1v-3.3c0,0,10.7.5,10.7.5,1.3,0,2.2,0,2.5,0,1.5,0,3.9-.1,7.1-.3,1.8-.1,3-.2,3.5-.2,0,.5,0,.9,0,1.2s0,1,0,1.7c-1,.4-2.2.7-3.5,1-1.3.3-2.4.6-3.2,1-.2.7-.2,1.6-.2,2.8s0,2,.1,2.6c0,4.3-.1,7.5-.1,9.8v10s-.2,5.1-.2,5.1l.2,7.6v1.4c-.1.2,0,.5.1.9,1.5.3,2.9.6,4.2.7.2,0,1,.1,2.3.3.1.8.2,1.4.2,1.9s0,.7,0,1.3c-.3,0-.6,0-.8,0-.8,0-1.3,0-1.4,0s-.5,0-1-.1c-.4,0-2-.2-5-.5h-6.7c-1.3,0-3.3,0-5.8.3-1.7.2-2.7.2-3.2.3Z"/>
    <path class="st1" d="M688.2,108.8c.3.8,1,2.9,2,6.5.5,1.6.7,3.3.7,5.1h-3.4c-2.4-3.4-4.9-5.9-7.5-7.4-2.6-1.5-5.4-2.3-8.6-2.3s-7.1,1.5-9.5,4.6c-3.3,4.1-4.9,9.9-4.9,17.3s.3,7.3.8,9.2c.9,3,2.1,5.4,3.4,7.2,1.1,1.4,2.4,2.5,4.2,3.4,2.2,1.1,4.6,1.7,7.1,1.7s5.5-.9,8-2.6c2.6-1.7,5.1-4.3,7.4-7.7.9-.2,2.2-.3,3.7-.3-.1,1-.3,1.9-.5,3,0,.4-.4,2-.9,4.8l-.3,1.1-.5,1.8c-1.5,1.2-3.7,2.1-6.5,2.7-2.8.6-6.2.9-10.3.9s-6-.3-8.8-.9-5.1-1.5-7.1-2.8c-2.9-1.8-5.1-3.8-6.8-5.9-1.6-2.1-2.9-4.4-3.7-6.9-.8-2.5-1.2-5.3-1.2-8.4,0-7.5,2.5-13.7,7.4-18.6,5-4.9,11.3-7.3,19-7.3s6.1.2,8.8.5,5.3.8,7.7,1.4Z"/>
    <path class="st1" d="M693.2,156.9v-2.6c.6-.2,1.4-.3,2.6-.6,1.9-.4,3.1-.7,3.5-1,.4-.3.9-1,1.5-2.2l7.6-20,9-23.5h4.1l.3.7,6.6,15.6c1.5,3.3,2.8,6.5,4,9.6,1.2,3.1,2.2,5.7,3.1,7.6.5,1.2,1.2,3,2.1,5.3.5,1.3,1.1,2.9,2.1,4.8.5,1.1.9,1.7,1.1,1.9.5.4,1.2.6,2.2.8,1,.1,2.1.4,3.3.9.1.8.2,1.5.2,1.9s0,.5,0,.8c-1.9,0-3.9,0-6.2-.3-2.2-.2-4.3-.3-6.1-.3s-3.4,0-4.3,0l-6.4.3h-1.9c0-.8,0-1.7.1-2.5l4.2-.9c1.3-.3,2-.6,2.2-.8.3-.3.4-.5.4-.9s0-.7-.2-1l-1.5-3.7-3-7.4h-14.4c-.5,1.2-1.6,4.1-3.3,8.9-.5,1.3-.7,2.2-.7,2.7s.2,1.1.5,1.4c.6.5,1.7.8,3.3,1,.2,0,1.1.2,2.7.4,0,.9,0,1.5,0,1.9s0,.6,0,.9c-1.6,0-5.3-.2-11.2-.6l-1.6.3c-1.9.3-3.6.5-5.3.5h-.7ZM711,135.7c5.9,0,9.4.1,10.4.1h.9c-.8-2.3-1.7-4.9-3-7.9-1.2-3-2.2-5.3-3-6.8l-5.5,14.6Z"/>
  </g>
  <g>
    <path class="st1" d="M383.5,290.4c-1.7,0-3.3-.3-4.9-.8-1.6-.5-2.8-1.2-3.7-2l1.2-2.5c.8.7,1.9,1.4,3.3,1.8,1.3.5,2.7.7,4.1.7s2.3-.1,3.2-.4c.8-.3,1.4-.7,1.8-1.2.4-.5.6-1.1.6-1.8s-.2-1.4-.7-1.8c-.5-.5-1.1-.8-1.9-1.1-.8-.3-1.7-.5-2.6-.7-1-.2-1.9-.5-2.9-.7-1-.3-1.8-.7-2.6-1.1-.8-.4-1.4-1-1.9-1.8-.5-.8-.7-1.7-.7-2.9s.3-2.2.9-3.2c.6-1,1.5-1.7,2.8-2.3,1.3-.6,2.9-.9,4.8-.9s2.6.2,3.9.5c1.3.3,2.4.8,3.3,1.5l-1.1,2.6c-1-.6-2-1.1-3-1.4-1.1-.3-2.1-.4-3.1-.4s-2.3.2-3.1.5-1.4.7-1.8,1.3c-.4.5-.6,1.1-.6,1.8s.2,1.4.7,1.9c.5.5,1.1.8,1.9,1.1.8.3,1.7.5,2.6.7s1.9.5,2.9.7c1,.3,1.8.6,2.6,1.1s1.4,1,1.9,1.8c.5.7.7,1.7.7,2.9s-.3,2.2-.9,3.1c-.6,1-1.6,1.7-2.9,2.3-1.3.6-2.9.9-4.9.9Z"/>
    <path class="st1" d="M403.9,290.3c-1.8,0-3.4-.4-4.8-1.1-1.4-.7-2.4-1.8-3.2-3.1-.8-1.3-1.1-2.8-1.1-4.5s.4-3.2,1.1-4.5c.7-1.3,1.7-2.3,3-3,1.3-.7,2.7-1.1,4.4-1.1s3.1.4,4.3,1.1c1.3.7,2.2,1.7,2.9,3,.7,1.3,1.1,2.8,1.1,4.6s0,.3,0,.4c0,.2,0,.3,0,.5h-14.4v-2.2h12.8l-1.2.8c0-1.1-.2-2.1-.7-2.9-.5-.8-1.1-1.5-1.9-2-.8-.5-1.8-.7-2.9-.7s-2,.2-2.8.7c-.8.5-1.5,1.1-1.9,2s-.7,1.8-.7,2.9v.5c0,1.1.3,2.1.8,3,.5.9,1.2,1.6,2.2,2.1.9.5,2,.7,3.2.7s1.9-.2,2.7-.5c.8-.3,1.5-.8,2.2-1.5l1.7,2c-.8.9-1.7,1.6-2.9,2-1.1.5-2.4.7-3.8.7Z"/>
    <path class="st1" d="M415.9,290.1v-16.9h2.9v4.6l-.3-1.1c.5-1.2,1.3-2.1,2.4-2.7,1.1-.6,2.5-.9,4.1-.9v3c-.1,0-.2,0-.4,0h-.3c-1.6,0-2.9.5-3.9,1.5s-1.4,2.4-1.4,4.2v8.4h-3.1Z"/>
    <path class="st1" d="M433.9,290.1l-7.4-16.9h3.2l6.6,15.3h-1.5l6.7-15.3h3l-7.4,16.9h-3.1Z"/>
    <path class="st1" d="M448.8,270c-.6,0-1.1-.2-1.5-.6s-.6-.8-.6-1.4.2-1.1.6-1.4c.4-.4.9-.6,1.5-.6s1.1.2,1.5.6c.4.4.6.8.6,1.4s-.2,1.1-.6,1.5c-.4.4-.9.6-1.5.6ZM447.3,290.1v-16.9h3.1v16.9h-3.1Z"/>
    <path class="st1" d="M463.5,290.3c-1.7,0-3.3-.4-4.6-1.1-1.3-.7-2.4-1.8-3.2-3.1s-1.1-2.8-1.1-4.5.4-3.2,1.1-4.5c.8-1.3,1.8-2.3,3.2-3,1.3-.7,2.9-1.1,4.6-1.1s2.9.3,4.1.9c1.2.6,2.1,1.5,2.8,2.7l-2.3,1.5c-.6-.8-1.2-1.4-2-1.8-.8-.4-1.7-.6-2.6-.6s-2.1.2-3,.7-1.6,1.2-2.1,2.1c-.5.9-.8,1.9-.8,3.1s.3,2.3.8,3.2c.5.9,1.2,1.6,2.1,2.1.9.5,1.9.7,3,.7s1.8-.2,2.6-.6c.8-.4,1.5-1,2-1.8l2.3,1.5c-.7,1.2-1.6,2.1-2.8,2.7-1.2.6-2.6.9-4.1.9Z"/>
    <path class="st1" d="M475.7,270c-.6,0-1.1-.2-1.5-.6s-.6-.8-.6-1.4.2-1.1.6-1.4c.4-.4.9-.6,1.5-.6s1.1.2,1.5.6c.4.4.6.8.6,1.4s-.2,1.1-.6,1.5c-.4.4-.9.6-1.5.6ZM474.1,290.1v-16.9h3.1v16.9h-3.1Z"/>
    <path class="st1" d="M490.3,290.3c-1.7,0-3.2-.4-4.5-1.1-1.3-.7-2.4-1.8-3.1-3.1s-1.1-2.8-1.1-4.4.4-3.2,1.1-4.5c.8-1.3,1.8-2.3,3.1-3,1.3-.7,2.8-1.1,4.5-1.1s3.2.4,4.5,1.1c1.3.7,2.4,1.7,3.1,3,.8,1.3,1.1,2.8,1.1,4.5s-.4,3.2-1.1,4.5c-.8,1.3-1.8,2.3-3.1,3.1-1.3.7-2.8,1.1-4.5,1.1ZM490.3,287.6c1.1,0,2.1-.2,2.9-.7.9-.5,1.5-1.2,2-2.1.5-.9.7-1.9.7-3.1s-.2-2.3-.7-3.1c-.5-.9-1.2-1.6-2-2.1-.9-.5-1.8-.7-2.9-.7s-2.1.2-2.9.7c-.9.5-1.5,1.2-2,2.1-.5.9-.8,1.9-.8,3.1s.3,2.2.8,3.1c.5.9,1.2,1.6,2,2.1.8.5,1.8.7,2.9.7Z"/>
    <path class="st1" d="M508.1,290.3c-1.4,0-2.7-.2-4-.6-1.3-.4-2.3-.9-3-1.4l1.3-2.4c.7.5,1.6.9,2.7,1.2s2.1.5,3.3.5,2.4-.2,3.1-.6c.6-.4.9-1,.9-1.7s-.2-.9-.6-1.2c-.4-.3-.9-.5-1.5-.7-.6-.1-1.3-.3-2.1-.4-.8-.1-1.5-.3-2.3-.4-.8-.2-1.5-.4-2.1-.8-.6-.3-1.1-.8-1.5-1.4s-.6-1.4-.6-2.3.3-1.9.9-2.7c.6-.8,1.4-1.4,2.4-1.8,1.1-.4,2.3-.6,3.7-.6s2.2.1,3.4.4c1.1.3,2.1.6,2.8,1.1l-1.3,2.4c-.8-.5-1.6-.9-2.4-1.1-.8-.2-1.7-.3-2.5-.3-1.3,0-2.3.2-3,.7-.7.4-1,1-1,1.7s.2,1,.6,1.3.9.5,1.5.7,1.3.3,2.1.4c.8.1,1.5.3,2.3.4.8.2,1.5.4,2.1.7s1.1.8,1.5,1.3c.4.6.6,1.3.6,2.3s-.3,1.9-.9,2.6c-.6.7-1.4,1.3-2.5,1.7-1.1.4-2.4.6-3.9.6Z"/>
    <path class="st1" d="M531.1,290.4c-1.3,0-2.5-.3-3.7-.8-1.1-.6-2.1-1.3-2.8-2.4l1.8-2.2c.6.9,1.3,1.5,2.1,2,.8.5,1.6.7,2.6.7,2.5,0,3.8-1.5,3.8-4.5v-12.5h-8.1v-2.8h11.2v15.1c0,2.5-.6,4.3-1.8,5.6s-2.9,1.8-5.2,1.8Z"/>
    <path class="st1" d="M551.3,290.3c-1.4,0-2.7-.3-3.8-.8-1.1-.5-1.9-1.3-2.6-2.4-.6-1.1-.9-2.5-.9-4.1v-9.7h3.1v9.4c0,1.7.4,2.9,1.2,3.7.8.8,1.9,1.2,3.4,1.2s2-.2,2.8-.7c.8-.4,1.4-1.1,1.8-1.9.4-.8.6-1.9.6-3v-8.7h3.1v16.9h-2.9v-4.6l.5,1.2c-.6,1.1-1.4,2-2.5,2.6-1.1.6-2.3.9-3.7.9Z"/>
    <path class="st1" d="M565.7,290.1v-16.9h2.9v4.6l-.3-1.1c.5-1.2,1.3-2.1,2.4-2.7,1.1-.6,2.5-.9,4.1-.9v3c-.1,0-.2,0-.4,0h-.3c-1.6,0-2.9.5-3.9,1.5s-1.4,2.4-1.4,4.2v8.4h-3.1Z"/>
    <path class="st1" d="M577.7,270.8l4.3-4.1h3.9l-5.4,4.1h-2.9ZM578.6,290.1v-16.9h3.1v16.9h-3.1Z"/>
    <path class="st1" d="M594.5,290.3c-1.6,0-3.1-.4-4.4-1.1-1.3-.7-2.3-1.7-3-3-.7-1.3-1.1-2.8-1.1-4.5s.4-3.2,1.1-4.5c.7-1.3,1.8-2.3,3-3,1.3-.7,2.7-1.1,4.4-1.1s2.7.3,3.9,1c1.1.6,2.1,1.6,2.8,2.9.7,1.3,1,2.9,1,4.8s-.3,3.5-1,4.8c-.7,1.3-1.6,2.2-2.7,2.9s-2.5,1-3.9,1ZM594.7,287.6c1.1,0,2-.2,2.9-.7.9-.5,1.5-1.2,2-2.1.5-.9.7-1.9.7-3.1s-.2-2.3-.7-3.1-1.2-1.6-2-2.1-1.8-.7-2.9-.7-2.1.2-2.9.7c-.9.5-1.5,1.2-2,2.1-.5.9-.8,1.9-.8,3.1s.3,2.2.8,3.1c.5.9,1.2,1.6,2,2.1.8.5,1.8.7,2.9.7ZM600.5,290.1v-4.6l.2-3.9-.3-3.9v-11.3h3.1v23.7h-2.9Z"/>
    <path class="st1" d="M610.8,270c-.6,0-1.1-.2-1.5-.6s-.6-.8-.6-1.4.2-1.1.6-1.4c.4-.4.9-.6,1.5-.6s1.1.2,1.5.6c.4.4.6.8.6,1.4s-.2,1.1-.6,1.5c-.4.4-.9.6-1.5.6ZM609.2,290.1v-16.9h3.1v16.9h-3.1Z"/>
    <path class="st1" d="M625.5,290.3c-1.7,0-3.3-.4-4.6-1.1-1.3-.7-2.4-1.8-3.2-3.1s-1.1-2.8-1.1-4.5.4-3.2,1.1-4.5c.8-1.3,1.8-2.3,3.2-3,1.3-.7,2.9-1.1,4.6-1.1s2.9.3,4.1.9c1.2.6,2.1,1.5,2.8,2.7l-2.3,1.5c-.6-.8-1.2-1.4-2-1.8-.8-.4-1.7-.6-2.6-.6s-2.1.2-3,.7-1.6,1.2-2.1,2.1c-.5.9-.8,1.9-.8,3.1s.3,2.3.8,3.2c.5.9,1.2,1.6,2.1,2.1.9.5,1.9.7,3,.7s1.8-.2,2.6-.6c.8-.4,1.5-1,2-1.8l2.3,1.5c-.7,1.2-1.6,2.1-2.8,2.7-1.2.6-2.6.9-4.1.9Z"/>
    <path class="st1" d="M643.3,290.3c-1.7,0-3.2-.4-4.5-1.1-1.3-.7-2.4-1.8-3.1-3.1s-1.1-2.8-1.1-4.4.4-3.2,1.1-4.5c.8-1.3,1.8-2.3,3.1-3,1.3-.7,2.8-1.1,4.5-1.1s3.2.4,4.5,1.1c1.3.7,2.4,1.7,3.1,3,.8,1.3,1.1,2.8,1.1,4.5s-.4,3.2-1.1,4.5c-.8,1.3-1.8,2.3-3.1,3.1-1.3.7-2.8,1.1-4.5,1.1ZM643.3,287.6c1.1,0,2.1-.2,2.9-.7.9-.5,1.5-1.2,2-2.1.5-.9.7-1.9.7-3.1s-.2-2.3-.7-3.1c-.5-.9-1.2-1.6-2-2.1-.9-.5-1.8-.7-2.9-.7s-2.1.2-2.9.7c-.9.5-1.5,1.2-2,2.1-.5.9-.8,1.9-.8,3.1s.3,2.2.8,3.1c.5.9,1.2,1.6,2,2.1.8.5,1.8.7,2.9.7Z"/>
    <path class="st1" d="M661.1,290.3c-1.4,0-2.7-.2-4-.6-1.3-.4-2.3-.9-3-1.4l1.3-2.4c.7.5,1.6.9,2.7,1.2s2.1.5,3.3.5,2.4-.2,3.1-.6c.6-.4.9-1,.9-1.7s-.2-.9-.6-1.2c-.4-.3-.9-.5-1.5-.7-.6-.1-1.3-.3-2.1-.4-.8-.1-1.5-.3-2.3-.4-.8-.2-1.5-.4-2.1-.8-.6-.3-1.1-.8-1.5-1.4s-.6-1.4-.6-2.3.3-1.9.9-2.7c.6-.8,1.4-1.4,2.4-1.8,1.1-.4,2.3-.6,3.7-.6s2.2.1,3.4.4c1.1.3,2.1.6,2.8,1.1l-1.3,2.4c-.8-.5-1.6-.9-2.4-1.1-.8-.2-1.7-.3-2.5-.3-1.3,0-2.3.2-3,.7-.7.4-1,1-1,1.7s.2,1,.6,1.3.9.5,1.5.7,1.3.3,2.1.4c.8.1,1.5.3,2.3.4.8.2,1.5.4,2.1.7s1.1.8,1.5,1.3c.4.6.6,1.3.6,2.3s-.3,1.9-.9,2.6c-.6.7-1.4,1.3-2.5,1.7-1.1.4-2.4.6-3.9.6Z"/>
    <path class="st1" d="M681.3,296.3v-29.8h2.8v29.8h-2.8Z"/>
    <path class="st1" d="M698.7,290.1v-22.3h5.2v22.3h-5.2Z"/>
    <path class="st1" d="M710.7,290.4c-.9,0-1.6-.3-2.2-.9-.6-.6-.9-1.3-.9-2.2s.3-1.7.9-2.2c.6-.6,1.3-.8,2.2-.8s1.6.3,2.2.8c.6.6.9,1.3.9,2.2s-.3,1.7-.9,2.2c-.6.6-1.3.9-2.2.9Z"/>
    <path class="st1" d="M723.3,290.5c-1.5,0-2.9-.3-4.2-.8-1.3-.6-2.3-1.4-3.1-2.4l2.9-3.4c.6.8,1.3,1.4,1.9,1.8.7.4,1.4.6,2.2.6,2.1,0,3.2-1.2,3.2-3.7v-10.6h-7.8v-4.1h13v14.5c0,2.8-.7,4.8-2,6.2s-3.4,2-6,2Z"/>
    <path class="st1" d="M737.8,290.4c-.9,0-1.6-.3-2.2-.9-.6-.6-.9-1.3-.9-2.2s.3-1.7.9-2.2c.6-.6,1.3-.8,2.2-.8s1.6.3,2.2.8c.6.6.9,1.3.9,2.2s-.3,1.7-.9,2.2c-.6.6-1.3.9-2.2.9Z"/>
  </g>
  <g>
    <path class="st1" d="M404.5,193.6c.3.9.5,2.2.7,3.9.3,2.6.5,4.6.5,6.1s0,.9-.2,1.5h-.4c0,.1-2.7,0-2.7,0h-.5c-1.1-3.4-2.2-5.7-3.3-6.8-1.9-2-4.2-3-6.8-3s-4.4.7-5.9,2c-1.5,1.3-2.2,2.9-2.2,4.8s.7,3.2,2.2,4.7c1.4,1.5,4.4,2.9,9,4.3,1.5.5,3.4,1.2,5.6,2.2,2.2,1,3.8,2.1,5,3.3,1.5,1.6,2.6,3.1,3.1,4.5.6,1.5.9,3.3.9,5.4s-.4,4.7-1.3,7c-.5,1.2-1.2,2.4-2.3,3.4-.8.8-1.9,1.6-3.5,2.7s-3.2,1.8-4.9,2.2c-1.7.5-3.9.7-6.6.7s-3.9-.3-6.3-.8l-4.5-1.3c-1.3-.4-2.1-.7-2.4-.9-.1-.1-.2-.3-.3-.7v-.4c0-.3,0-2-.2-5.2,0-1.6,0-2.8,0-3.5v-1.4h3.5c1.2,2.7,2,4.4,2.3,5,.8,1.3,1.6,2.3,2.6,3.1.9.8,2.1,1.4,3.4,1.9,1.3.5,2.7.7,4.3.7s2.9-.3,4.5-.9c1.6-.6,3-1.5,3.9-2.9,1-1.3,1.5-2.7,1.5-4.3s-.9-3.6-2.6-5.2c-1.1-1-3.9-2.3-8.6-3.9s-7.9-3.1-9.6-4.4c-1.8-1.3-3.2-3-4.2-5.2s-1.6-4.2-1.6-6.2c0-4,1.4-7.4,4.3-10.2,2.9-2.8,7.1-4.2,12.7-4.2s3,.2,5.4.6c1.4.3,3.3.8,5.7,1.6Z"/>
    <path class="st1" d="M413.5,195.7v-3c.3,0,.8,0,1.3,0,1.3,0,2.6,0,4,.1,3.3.2,5.3.3,5.9.3,2,0,4,0,5.9-.1,1.9,0,3.7-.1,5.2-.2s2.5,0,3.1,0v.4s0,2.2,0,2.2v.3c-1.4.2-2.9.3-4.4.3s-2.3.3-2.8.8c-.3.4-.5,1.9-.5,4.5s0,1.5,0,2v1.4s0,3.6,0,3.6l.2,3-.2,6.5.5,9.5c.1,2.7.7,5,1.8,6.8.8,1.3,1.9,2.4,3.4,3.1,2.1,1.1,4.2,1.6,6.2,1.6s4.7-.3,6.8-.9c1.2-.4,2.4-.9,3.5-1.7,1.1-.8,1.9-1.5,2.3-2.2.9-1.4,1.5-2.7,1.9-3.9.5-1.7.7-4.2.7-7.8,0-6.1-.3-13-1-20.6l-.2-2c0-1.5-.4-2.5-.8-3-.8-.8-1.7-1.2-2.7-1.2h-3.6c0,0-.5,0-.5,0v-2.9h3.1l7.2.3c2.4,0,4.7-.1,6.9-.3h.6c.2.9.2,1.5.2,1.8s0,.6-.2,1c-.9.3-1.9.4-3,.5-1.7.2-2.6.4-2.8.6-.4.3-.5.8-.5,1.4s0,1.1.1,2c0,.6.1,1.7.1,3.3s0,1.6,0,2.1c0,.5,0,1,0,1.6,0,1.8.1,3.7.2,5.5l.4,7.7c0,5.1-.2,8.6-.5,10.3-.4,1.7-.8,3.1-1.4,4.1-.9,1.5-2.3,2.9-4,4.2-1.7,1.3-3.9,2.3-6.4,3-2.6.7-5.6,1.1-9,1.1s-7.3-.5-10.1-1.6c-2.8-1-4.9-2.4-6.3-4.1s-2.4-3.9-2.9-6.6c-.4-1.9-.6-4.5-.6-8v-18c0-4.3-.2-6.7-.6-7.2-.6-.8-2.3-1.2-5.2-1.3-.6,0-1.2,0-1.6-.1Z"/>
    <path class="st1" d="M474.2,239.1c.7-.4,1.6-.6,2.9-.8s2.4-.4,3.5-.8c.1-.5.2-.9.2-1.1,0-.4,0-1.6,0-3.6v-8.4s.1-4.5.1-4.5v-3.5c0,0,0-2,0-2,0-2.7.1-5.3.1-7.7,0-5.2,0-8.6-.2-10.1l-2.2-.5c-2-.1-3.4-.3-4.1-.4v-2.3c0,0,0-.4,0-.4,1.3-.2,2.4-.3,3.5-.3s1.8,0,3.5,0c1.8.2,2.8.2,3,.2h2c0-.1,4.7-.3,4.7-.3,3-.3,6.1-.5,9.3-.5,5.2,0,9.3,1.3,12.3,4,3.1,2.6,4.6,5.7,4.6,9.1s-.8,4.9-2.5,6.9c-1.6,2.1-4.2,3.7-7.6,4.7.3.5.7,1.1,1.2,1.9,1.1,1.5,1.9,2.8,2.6,3.9l6,9.8c1.5,2.6,2.5,4.1,3,4.6.5.4,1.4.9,2.9,1.5,1.1.4,2,.9,2.6,1.3.2.4.2.8.2,1.1s0,.5,0,.9h-1.8s-2-.2-2-.2h-1.6c-.8-.1-1.8-.2-3-.2h-3.8c-.3,0-1.2,0-2.6.2-.7,0-1.2.1-1.6.2l-1.3-2.5c-1.1-1.9-1.8-3.3-2.2-4.2-1.1-2.4-3-6.3-5.7-11.7-1.3-2.5-2.1-3.9-2.6-4.2-.8-.5-2.1-.8-3.9-.8s-1.4,0-2.6,0c0,.7-.1,1.6-.1,2.6l.2,8.4-.2,7.1c.7.4,1.6.8,2.8,1,2,.4,3.7.9,5.1,1.4,0,1.2,0,2.2-.2,2.8-.5,0-.8,0-.9,0h-1.6c-5.4-.4-8.6-.6-9.6-.6s-1.1,0-1.4,0l-5.2.3c-1.6.2-3,.3-4.4.3h-1.6c0-.6,0-1,0-1.2,0-.3,0-.7.1-1.2ZM491.2,214.7c1.2,0,2.1,0,2.6,0,4.3,0,7.3-.8,9.1-2.3,1.8-1.5,2.7-3.6,2.7-6.2s-.2-3.1-.7-4.5c-.4-1.4-1-2.4-1.6-3.1-.9-1-2.2-1.7-3.7-2.2-1.1-.4-2.9-.6-5.3-.6s-2.2,0-3,.2v.7c0,0,0,5.1,0,5.1v3.1c-.1,0,0,4.1,0,4.1,0,1.2,0,2.7-.1,4.5v1.1Z"/>
  </g>
</svg>