<?xml version="1.0" encoding="UTF-8"?>
<svg id="Capa_1" xmlns="http://www.w3.org/2000/svg" version="1.1" viewBox="0 0 500 500">
  <!-- Generator: Adobe Illustrator 29.8.1, SVG Export Plug-In . SVG Version: 2.1.1 Build 2)  -->
  <defs>
    <style>
      .st0 {
        fill: #010101;
      }

      .st1 {
        fill: #b98011;
      }
    </style>
  </defs>
  <circle class="st0" cx="217.9" cy="249.9" r="213.6"/>
  <g>
    <path class="st1" d="M372.9,263.2c-10.9,0-21.8,0-32.7,0-8.1,0-16.2.1-24.3-.5-6.9-.5-12.2,1.6-16.3,7-2.2,2.9-5,3.8-8.6,3.7-14.9-.2-29.8,0-44.7-.1-1.2,0-2.3-.8-3.5-1.2.5-1.2.8-2.6,1.7-3.6,4.1-4.4,8.5-8.4,12.5-12.8,3.3-3.6,3.4-7.7,0-11.4-4.1-4.5-8.6-8.7-12.8-13.1-.8-.8-1-2.2-1.5-3.3,1.1-.4,2.3-1.3,3.4-1.3,15.6,0,31.2-.1,46.7,0,1.6,0,3.7.8,4.8,1.9,10.4,10.1,7.1,8.6,20.8,8.7,29.1.1,58.3.2,87.4.3,7.6,0,11.2-4.4,9.6-12.1-2.1-10.2-3.7-20.5-6.6-30.4-7.5-25.5-20.4-48.1-37.8-68.2-13.7-15.8-29.4-28.9-47.5-39.3-20.5-11.8-42.3-20-65.8-23.1-8.8-1.2-17.6-1.7-26.4-2.3-2.7-.2-3.8-1.1-3.8-3.8,0-6.1.1-12.2,0-18.4,0-2.8,1.1-3.9,3.8-3.6,11.5,1.1,23,1.7,34.3,3.3,18.2,2.5,35.5,8.3,52.2,15.9,25.2,11.5,47.3,27.4,66.4,47.6,21.1,22.3,36.8,48,46.9,77,5,14.4,8.4,29.1,10,44.3.2,2,.4,4,.7,5.9.6,4,4,7.3,8.2,7.4,6,.2,12,0,18,.1,2.5,0,3.1-1.4,3.2-3.6,0-1.3.9-2.7,1.4-4,1.3.6,2.8,1,3.8,2,5.2,5,10.3,10.1,15.3,15.3,3,3,2.9,3.6,0,6.5-5.4,5.3-10.7,10.6-16.2,15.8-.8.7-2.2,1.5-3,1.2-.7-.3-1.3-1.8-1.4-2.9-.3-4.7-.2-4.8-5.1-4.8-4.9,0-9.8,0-14.7,0-6.1,0-9.1,2.7-9.7,8.9-4.3,37.6-17.2,72-39.4,102.7-18.7,25.8-41.9,46.4-69.7,61.9-22,12.2-45.4,20.6-70.3,24-10.6,1.5-21.4,1.8-32.1,2.8-2.9.2-4-1-4-3.8,0-6.1,0-12.2,0-18.4,0-2.5,1-3.6,3.6-3.6,4.3,0,8.7-.1,13-.5,5.8-.4,8.8-3.8,8.8-9.6,0-16.1,0-32.3,0-48.4,0-2.3.7-3.9,2.3-5.5,20.1-19.8,40.1-39.7,60.1-59.6,7.2-7.1,14.3-14.3,21.5-21.4.9-.9,2.4-1.1,3.7-1.7.4,1.3,1.2,2.5,1.2,3.8.1,8.9.1,17.8,0,26.7,0,1.5-.8,3.5-1.9,4.5-19.2,19.3-38.5,38.5-57.8,57.6-2.4,2.4-3.3,5.1-3.3,8.3,0,9,0,18,0,27,0,7.4,5.3,11.2,12.2,8.8,31.4-11.1,58.4-28.7,80.5-53.8,20.2-22.9,34-49.1,41.6-78.7,1.9-7.4,3-14.9,4.2-22.5.9-5.4-3.1-9.7-8.8-9.7-11.5,0-22.9,0-34.4,0,0,0,0,0,0,0Z"/>
    <path class="st1" d="M161.5,251.8c-15.6,0-31.1,0-46.7,0-6.9,0-10.3,4.8-8.9,11.5,2.3,10.6,6.1,20.6,12.6,29.3,13.3,17.8,30.8,28.4,53.1,30.6,4.5.5,9.1.2,13.6.1,2,0,3,.7,3,2.6,0,7.3.2,14.7,0,22,0,1-1.8,2.7-2.8,2.8-26.2,1.5-49.7-5.8-70.1-22.3-19.4-15.7-31.3-36-36.1-60.3-1-4.8-1.3-9.7-1.4-14.5-.2-8.1,0-16.2,0-24.3,0-1.9,0-3.5,2.7-3.5,22.3.1,44.7.3,67,.3,16.9,0,33.8,0,50.7,0,4.1,0,8.2.3,12.3.3,1.9,0,2.5,1,2.5,2.7,0,6.4-.1,12.9,0,19.3,0,2.6-1,3.5-3.6,3.4-15.9,0-31.8,0-47.7,0,0,0,0,0,0,0Z"/>
    <path class="st1" d="M306.5,197.8c-7.6,0-15.1,0-22.7,0-3.9,0-4.2-.3-4-4.1,1.3-19.2-5.3-34.7-20.8-46.4-16.8-12.7-42.2-12.6-59.1.1-10.5,7.9-17.2,18.2-19.9,30.9-1,4.9-.7,10.1-.5,15.2,0,2.7-.5,4-3.3,4-6.4,0-12.9,0-19.3,0-2.3,0-3.1-1.2-3.3-3.3-2.9-40.5,25.4-73.5,60.6-80.6,38.4-7.7,76,14.7,87.5,50.6,1.2,3.7,2,7.5,2.8,11.2.8,3.9,2.6,6.8,6.6,8.5,6.6,2.8,13.1,6,19.6,9.1,1.1.5,1.7,2,2.5,3-1.1.6-2.3,1.7-3.4,1.7-7.8.2-15.6,0-23.4,0h0Z"/>
  </g>
</svg>